HIERARCHY
ROOT root
{
	OFFSET 0.000000 0.000000 0.000000
	CHANNELS 6 Xposition Yposition Zposition Zrotation Yrotation Xrotation
	JOINT lhip
	{
		OFFSET 0.058581 -0.082280 -0.017664
		CHANNELS 3 Zrotation Yrotation Xrotation
		JOINT lknee
		{
			OFFSET 0.043451 -0.386469 0.008037
			CHANNELS 3 Zrotation Yrotation Xrotation
			JOINT lankle
			{
				OFFSET -0.014790 -0.426874 -0.037428
				CHANNELS 3 Zrotation Yrotation Xrotation
				JOINT ltoe
				{
					OFFSET 0.041054 -0.060286 0.122042
					CHANNELS 3 Zrotation Yrotation Xrotation
					End Site
					{
						OFFSET 0.000000 0.000000 0.000000
					}
				}
			}
		}
	}
	JOINT rhip
	{
		OFFSET -0.060310 -0.090513 -0.013543
		CHANNELS 3 Zrotation Yrotation Xrotation
		JOINT rknee
		{
			OFFSET -0.043257 -0.383688 -0.004843
			CHANNELS 3 Zrotation Yrotation Xrotation
			JOINT rankle
			{
				OFFSET 0.019056 -0.420046 -0.034562
				CHANNELS 3 Zrotation Yrotation Xrotation
				JOINT rtoe
				{
					OFFSET -0.034840 -0.062106 0.130323
					CHANNELS 3 Zrotation Yrotation Xrotation
					End Site
					{
						OFFSET 0.000000 0.000000 0.000000
					}
				}
			}
		}
	}
	JOINT lowerback
	{
		OFFSET 0.004439 0.124404 -0.038385
		CHANNELS 3 Zrotation Yrotation Xrotation
		JOINT upperback
		{
			OFFSET 0.004488 0.137956 0.026820
			CHANNELS 3 Zrotation Yrotation Xrotation
			JOINT chest
			{
				OFFSET -0.002265 0.056032 0.002855
				CHANNELS 3 Zrotation Yrotation Xrotation
				JOINT lowerneck
				{
					OFFSET -0.013390 0.211636 -0.033468
					CHANNELS 3 Zrotation Yrotation Xrotation
					JOINT upperneck
					{
						OFFSET 0.010113 0.088937 0.050410
						CHANNELS 3 Zrotation Yrotation Xrotation
						End Site
						{
							OFFSET 0.000000 0.000000 0.000000
						}
					}
				}
				JOINT lclavicle
				{
					OFFSET 0.071702 0.114000 -0.018898
					CHANNELS 3 Zrotation Yrotation Xrotation
					JOINT lshoulder
					{
						OFFSET 0.122921 0.045205 -0.019046
						CHANNELS 3 Zrotation Yrotation Xrotation
						JOINT lelbow
						{
							OFFSET 0.255332 -0.015649 -0.022946
							CHANNELS 3 Zrotation Yrotation Xrotation
							JOINT lwrist
							{
								OFFSET 0.265709 0.012698 -0.007375
								CHANNELS 3 Zrotation Yrotation Xrotation
								End Site
								{
									OFFSET 0.000000 0.000000 0.000000
								}
							}
						}
					}
				}
				JOINT rclavicle
				{
					OFFSET -0.082954 0.112472 -0.023707
					CHANNELS 3 Zrotation Yrotation Xrotation
					JOINT rshoulder
					{
						OFFSET -0.113228 0.046853 -0.008472
						CHANNELS 3 Zrotation Yrotation Xrotation
						JOINT relbow
						{
							OFFSET -0.260127 -0.014369 -0.031269
							CHANNELS 3 Zrotation Yrotation Xrotation
							JOINT rwrist
							{
								OFFSET -0.269108 0.006794 -0.006027
								CHANNELS 3 Zrotation Yrotation Xrotation
								End Site
								{
									OFFSET 0.000000 0.000000 0.000000
								}
							}
						}
					}
				}
			}
		}
	}
}
MOTION
Frames: 14
Frame Time: 0.033333
-1.178814 0.353395 1.015695 97.114482 -0.437324 81.935071 -2.970297 2.468967 15.913309 -4.337921 -18.949775 6.504318 5.896009 9.392376 -14.588968 0.000000 -0.000000 0.000000 -3.949178 -3.658929 -22.524017 0.068966 -9.451398 5.836417 11.556285 -10.597265 0.193866 0.000000 -0.000000 0.000000 -1.848988 -4.239783 19.465290 -0.233574 -1.415637 -2.103751 0.554929 -2.653196 5.145367 6.120575 5.876619 -12.445457 0.729708 -0.105494 7.720215 -24.520831 6.834929 -1.032812 -50.276713 -12.187683 8.237519 6.082477 -35.878690 5.827502 -1.007770 -5.801568 -7.421016 30.351706 -4.191150 0.010536 53.960981 0.624267 11.107396 -10.005723 5.581383 -11.509619 5.503339 -1.164088 -1.972754 
-1.156344 0.352695 1.012384 97.063652 -0.503908 82.309767 -2.711248 2.717097 17.082854 -4.288774 -19.415919 6.440695 6.057449 9.803618 -14.908450 0.000000 -0.000000 0.000000 -4.317631 -3.689003 -23.691875 0.144265 -10.398076 6.042007 11.473381 -11.443086 -0.041043 0.000000 -0.000000 0.000000 -1.703494 -4.451333 19.630824 -0.190427 -0.776429 -2.066911 0.773938 -2.704648 5.198902 6.245670 5.790789 -13.125644 0.775777 -0.029138 7.569428 -24.800836 6.956558 -1.003523 -50.760993 -11.887560 8.308396 5.744002 -34.485974 6.427484 -1.234101 -5.864151 -6.848766 30.111066 -4.138885 0.122790 53.561732 0.317229 10.943299 -9.741897 4.952160 -11.815817 5.383634 -1.197315 -1.809932 
-1.133098 0.351311 1.009790 97.195093 -0.410453 82.648691 -2.034726 3.103669 18.550246 -4.110533 -20.127038 6.143162 5.811661 9.728124 -14.525050 0.000000 -0.000000 0.000000 -4.617593 -3.369376 -24.678753 -0.072301 -10.930511 8.464397 10.885776 -12.006419 0.069629 0.000000 -0.000000 0.000000 -1.396846 -4.837183 19.824329 0.029113 -0.227375 -1.832094 0.923775 -2.753636 5.042981 6.367381 5.262544 -13.198026 0.559409 -0.155067 7.339554 -25.177129 6.827953 -0.600016 -51.086471 -11.539682 8.201973 5.547152 -32.843213 6.736399 -1.678284 -5.503754 -6.283430 29.817510 -4.063879 0.107911 53.214973 0.071478 10.564071 -9.709580 4.418924 -12.197104 5.318108 -1.317080 -1.674528 
-1.108673 0.349866 1.008359 97.929515 -0.223386 83.331837 -1.268387 3.070745 19.502077 -4.037944 -20.766168 6.123314 5.332694 9.461113 -14.348822 0.000000 -0.000000 0.000000 -4.997371 -2.926960 -24.620074 -0.048246 -10.420242 10.161427 10.399568 -11.723305 -0.172115 0.000000 -0.000000 0.000000 -0.711851 -5.310768 19.481952 0.304588 -0.288106 -1.643853 0.890371 -2.932084 4.875955 6.073339 5.676680 -13.320030 0.319502 0.389759 6.965073 -25.605864 6.880334 -0.583060 -51.416816 -11.023535 8.165906 5.255739 -30.591556 7.283647 -2.021879 -5.449540 -5.681781 29.796914 -4.184091 0.097041 52.576015 -0.030983 10.350180 -9.662250 4.235641 -12.417578 5.156157 -1.343052 -1.831639 
-1.083275 0.347878 1.007235 98.442050 -0.405193 84.416256 -0.882139 3.079355 19.771649 -4.167779 -20.908413 6.638931 5.076406 9.475104 -13.150501 0.000000 -0.000000 0.000000 -5.347008 -2.433274 -23.951330 0.234504 -8.490543 11.126384 10.140813 -10.675243 -0.154328 0.000000 -0.000000 0.000000 -0.406305 -5.413628 18.558686 0.710762 -0.536180 -1.309065 0.929587 -3.171839 4.732216 6.404028 5.127452 -13.033770 0.348265 0.172794 6.592864 -25.953960 6.722118 -0.334119 -51.685591 -10.405745 8.163318 4.963415 -28.324589 7.486365 -2.241620 -5.169922 -5.048335 29.526349 -4.301701 -0.056441 52.082660 -0.067650 10.260929 -9.523854 4.394196 -11.985803 4.972359 -1.622538 -1.765068 
-1.055098 0.344332 1.007042 98.234750 -0.713101 85.895885 -0.607513 3.135149 19.927095 -4.227756 -21.040645 6.690355 4.144347 9.089415 -11.477529 0.000000 -0.000000 0.000000 -5.030619 -2.060119 -23.011740 0.520078 -6.989522 11.667781 9.942954 -9.541971 0.180111 0.000000 -0.000000 0.000000 -0.218045 -5.331709 17.016680 0.976381 -0.754985 -1.085400 0.953490 -3.153791 4.469899 6.197376 5.291071 -12.744605 0.168612 0.513066 6.299190 -26.279601 6.907426 -0.303847 -51.808291 -9.447218 8.209515 4.653695 -25.982697 7.823942 -2.750372 -4.896364 -4.324761 29.601695 -4.364477 0.032117 51.590031 -0.031512 10.393214 -9.696287 4.271959 -11.316370 4.924006 -1.578698 -1.527403 
-1.027896 0.340580 1.010141 97.408685 -0.474526 87.266108 -0.369806 2.475450 19.426595 -4.163556 -20.512705 8.266242 3.199438 8.498036 -8.456000 0.000000 -0.000000 0.000000 -4.354313 -1.954643 -21.719240 1.098386 -7.603928 8.281538 10.766477 -9.609538 4.208463 0.000000 -0.000000 0.000000 0.827171 -5.224031 16.290262 1.034601 -0.555935 -1.373846 0.871936 -2.916696 4.083767 6.025165 4.648022 -12.652913 0.318072 0.605016 6.335372 -27.140619 7.266297 -0.333462 -51.512437 -8.978816 8.085411 4.348866 -23.730602 7.915375 -3.429822 -4.751259 -2.681167 29.633309 -4.442254 -0.093173 50.885585 0.224242 10.369877 -9.234428 3.788632 -11.524854 4.670860 -1.433743 -1.368141 
-0.998583 0.336874 1.014640 95.477338 -0.357519 88.269117 -0.534848 2.479622 19.228981 -4.234817 -19.825819 9.843630 1.894371 8.126316 -5.395513 0.000000 -0.000000 0.000000 -3.778093 -1.457218 -21.472930 1.413182 -7.354138 8.955956 10.501232 -9.344011 6.517158 0.000000 -0.000000 0.000000 1.320098 -4.845007 15.608505 1.166726 0.477651 -1.429128 0.989913 -2.608680 3.716397 5.646117 4.414802 -12.473948 0.265786 1.253153 6.023838 -27.834469 7.025911 -0.194774 -51.670668 -8.283068 8.092237 4.743740 -21.425169 7.318422 -4.117986 -4.515997 -1.758296 29.481779 -4.079287 0.304061 50.412739 0.458098 10.543575 -9.225643 3.546908 -11.477824 4.622054 -1.523415 -1.030433 
-0.969443 0.332053 1.019768 93.762848 0.127764 88.412194 -0.265703 2.304479 18.997645 -4.573816 -18.869142 12.887089 0.210952 7.844015 -0.784717 0.000000 -0.000000 0.000000 -2.904934 -0.529662 -20.307323 1.976535 -6.655091 9.655815 9.500088 -8.431038 5.308110 0.000000 -0.000000 0.000000 1.943330 -4.310341 15.076893 1.546862 1.103178 0.166589 1.151633 -2.183686 3.300823 5.173332 4.571728 -13.365708 0.002835 1.257976 5.840425 -28.098907 6.278575 -0.114186 -52.291328 -8.113629 8.191061 5.413187 -20.275158 6.499097 -4.561897 -4.308444 -1.521858 29.102194 -3.114346 0.547536 50.207276 1.187224 10.361978 -9.276747 3.480104 -11.412775 4.755775 -1.704346 -1.259508 
-0.938006 0.326981 1.024669 92.506425 0.177097 88.790268 -0.421518 2.162696 17.465727 -4.980057 -16.994437 17.059780 -0.882172 7.484181 3.655409 0.000000 -0.000000 0.000000 -1.829569 -0.150194 -19.075138 2.090361 -5.542712 10.111333 6.975950 -7.592523 4.638928 0.000000 -0.000000 0.000000 2.258546 -3.932050 14.336043 1.757571 1.193324 0.367319 1.096894 -1.998738 3.289789 5.023684 4.610491 -13.183844 -0.186574 1.610272 5.883053 -28.409016 6.358485 -0.219111 -52.206608 -7.730880 8.210450 5.447601 -19.747991 6.605416 -5.109380 -3.828588 -1.819530 29.160331 -2.345426 1.307453 49.845872 2.090110 10.689754 -9.225561 3.192070 -10.764681 4.680938 -1.697941 -1.212248 
-0.907370 0.321325 1.028399 91.824335 -0.017368 88.985224 -0.287571 2.001943 14.661504 -5.791256 -14.402424 23.303749 -1.177314 7.264890 7.568830 0.000000 -0.000000 0.000000 -0.721445 -0.016376 -17.383110 1.645431 -4.636805 10.113092 4.134797 -7.383783 4.845108 0.000000 -0.000000 0.000000 2.160502 -3.419045 13.808825 1.914912 0.949081 0.386497 1.029911 -1.894821 3.173418 5.114668 4.194536 -12.852627 0.153819 1.839995 5.795903 -28.179865 6.283900 -0.153245 -52.027307 -7.628858 8.225231 5.030730 -20.082644 7.482022 -5.784048 -3.919173 -2.142799 29.132253 -2.038717 1.306706 49.790309 2.814359 10.833511 -9.003747 3.289113 -10.035004 4.917743 -1.681819 -1.423953 
-0.878967 0.316701 1.030087 92.027720 -0.261625 89.034048 -0.282596 0.879242 10.899005 -6.010299 -11.428349 31.176409 1.750317 8.224360 8.792815 0.000000 -0.000000 0.000000 -0.100810 0.172492 -15.898738 1.239748 -4.213207 10.737279 1.766969 -7.948282 3.714438 0.000000 -0.000000 0.000000 1.985928 -2.908082 13.424581 2.044913 0.539114 -0.004318 0.911088 -1.806429 3.253957 5.538058 3.409560 -12.821947 0.324968 1.631543 6.360559 -27.880701 5.567373 0.696522 -51.751561 -8.094206 8.310645 5.052474 -21.624636 8.077266 -6.325112 -3.292940 -2.763192 29.187706 -1.537393 1.377476 49.939216 3.234406 10.876293 -9.096987 3.541860 -9.768017 5.131604 -1.767781 -2.152898 
-0.850750 0.312709 1.032240 92.441217 -0.390806 88.411784 -0.045620 0.167203 7.594038 -7.383791 -9.982994 39.141347 2.056397 8.198246 7.087401 0.000000 -0.000000 0.000000 0.146349 0.201576 -13.592902 1.217735 -3.835852 11.753393 0.915900 -8.378911 1.489744 0.000000 -0.000000 0.000000 2.078790 -2.656200 13.871788 2.039626 0.175552 -0.327601 0.611623 -1.530444 3.134943 5.691695 2.807979 -12.833372 0.522065 1.330512 6.653346 -28.245881 4.736360 0.804915 -50.713590 -8.478724 8.201788 4.803800 -23.616774 8.389337 -5.908713 -3.331888 -3.126785 29.480876 -1.090945 0.712725 49.818533 3.216221 10.632896 -8.834781 3.995221 -9.459356 5.075196 -1.932514 -2.457798 
-0.823355 0.308817 1.034245 92.695882 -0.596728 87.451548 0.480123 -0.092495 4.660667 -8.513540 -7.473563 45.078458 0.583998 7.384943 4.786557 0.000000 -0.000000 0.000000 0.343745 -0.619398 -10.900111 1.218386 -3.494626 12.499989 0.948407 -8.194052 -0.588517 0.000000 -0.000000 0.000000 1.945186 -1.903766 14.228859 2.007611 -0.240740 -0.208053 0.448452 -1.442150 3.025953 5.591400 2.906849 -12.851614 0.376018 1.189534 7.146377 -28.624317 3.724180 0.553059 -50.163103 -9.318258 8.028821 5.144968 -25.156074 7.713228 -5.275179 -3.306670 -3.549740 29.832821 -0.196320 0.601663 49.578704 4.047901 10.262990 -8.490259 3.614583 -9.927902 5.072778 -1.997056 -2.876368 
